<?xml version="1.0" encoding="UTF-8" standalone="no"?>
<!-- Generator: Adobe Illustrator 16.0.0, SVG Export Plug-In . SVG Version: 6.00 Build 0)  -->

<svg
   xmlns:dc="http://purl.org/dc/elements/1.1/"
   xmlns:cc="http://creativecommons.org/ns#"
   xmlns:rdf="http://www.w3.org/1999/02/22-rdf-syntax-ns#"
   xmlns:svg="http://www.w3.org/2000/svg"
   xmlns="http://www.w3.org/2000/svg"
   xmlns:sodipodi="http://sodipodi.sourceforge.net/DTD/sodipodi-0.dtd"
   xmlns:inkscape="http://www.inkscape.org/namespaces/inkscape"
   version="1.1"
   id="Capa_1"
   x="0px"
   y="0px"
   width="100"
   height="100"
   viewBox="0 0 100 100"
   style="shape-rendering:crispEdges;enable-background:new"
   xml:space="preserve"
   sodipodi:docname="2-arrows-button(color).svg"
   inkscape:label="Arrows"
   inkscape:version="0.92.2 (5c3e80d, 2017-08-06)"
   inkscape:export-filename="D:\Wrzutka\Captcha\2-arrows-button(color).png"
   inkscape:export-xdpi="96"
   inkscape:export-ydpi="96"><metadata
     id="metadata56"><rdf:RDF><cc:Work
         rdf:about=""><dc:format>image/svg+xml</dc:format><dc:type
           rdf:resource="http://purl.org/dc/dcmitype/StillImage" /><dc:title></dc:title></cc:Work></rdf:RDF></metadata><defs
     id="defs54" /><sodipodi:namedview
     pagecolor="#8ab59c"
     bordercolor="#a62626"
     borderopacity="1"
     objecttolerance="10"
     gridtolerance="10"
     guidetolerance="10"
     inkscape:pageopacity="0"
     inkscape:pageshadow="2"
     inkscape:window-width="1920"
     inkscape:window-height="1023"
     id="namedview52"
     showgrid="false"
     inkscape:zoom="7.38"
     inkscape:cx="45.627383"
     inkscape:cy="50.58956"
     inkscape:window-x="-4"
     inkscape:window-y="-4"
     inkscape:window-maximized="1"
     inkscape:current-layer="g9"
     inkscape:showpageshadow="false"
     inkscape:pagecheckerboard="false" /><g
     id="g19"
     inkscape:label="Arrows"
     transform="translate(0,36)"><g
       id="g9"
       inkscape:label="updown"><rect
         style="opacity:1;fill:#bdc946;fill-opacity:0.99271846;stroke:#2a4b34;stroke-width:2;stroke-linecap:square;stroke-linejoin:miter;stroke-miterlimit:4;stroke-dasharray:none;stroke-dashoffset:0;stroke-opacity:1;paint-order:stroke markers fill"
         id="rect844"
         width="100.271"
         height="100"
         x="0"
         y="-36.271004" /><text
         xml:space="preserve"
         style="font-style:normal;font-variant:normal;font-weight:normal;font-stretch:normal;font-size:18.21978569px;line-height:1.25;font-family:'Bookman Old Style';-inkscape-font-specification:'Bookman Old Style';font-variant-ligatures:normal;font-variant-caps:normal;font-variant-numeric:normal;font-feature-settings:normal;text-align:start;letter-spacing:0px;word-spacing:0px;writing-mode:lr-tb;text-anchor:start;fill:#352d5d;fill-opacity:1;stroke:none;stroke-width:1"
         x="20.984215"
         y="-20.22241"
         id="text4506"><tspan
           sodipodi:role="line"
           id="tspan4504"
           x="20.984215"
           y="-20.22241"
           style="font-style:normal;font-variant:normal;font-weight:normal;font-stretch:normal;font-family:Arial;-inkscape-font-specification:Arial;fill:#352d5d;fill-opacity:1;stroke-width:1">RESET</tspan></text>
<text
         id="text4510"
         y="60.777748"
         x="20.984152"
         style="font-style:normal;font-variant:normal;font-weight:normal;font-stretch:normal;font-size:18.21983337px;line-height:1.25;font-family:'Bookman Old Style';-inkscape-font-specification:'Bookman Old Style';font-variant-ligatures:normal;font-variant-caps:normal;font-variant-numeric:normal;font-feature-settings:normal;text-align:start;letter-spacing:0px;word-spacing:0px;writing-mode:lr-tb;text-anchor:start;fill:#352d5d;fill-opacity:1;stroke:none;stroke-width:0.99999994"
         xml:space="preserve"
         transform="scale(1.0000026,0.9999974)"><tspan
           style="font-style:normal;font-variant:normal;font-weight:normal;font-stretch:normal;font-family:Arial;-inkscape-font-specification:Arial;fill:#352d5d;fill-opacity:1;stroke-width:0.99999994"
           y="60.777748"
           x="20.984152"
           id="tspan4508"
           sodipodi:role="line">RESET</tspan></text>
<g
         id="g836"
         transform="matrix(0.92389727,-0.1629079,0.16290801,0.9238966,-10.040236,10.008177)"
         style="stroke-width:1.06592858"><path
           sodipodi:nodetypes="ccsscccccssccccccscssccsc"
           style="fill:#2a4b34;fill-opacity:1;stroke-width:1.06592822"
           inkscape:connector-curvature="0"
           id="down"
           d="M 65.660141,40.097321 59.855477,11.264503 C 59.561056,9.7895228 58.475747,8.5974155 57.035407,8.1586731 55.595063,7.7199327 54.036378,8.1096042 52.974159,9.1718197 l -2.020517,2.0205183 2.071033,3.701885 2.209583,-2.209587 c 0,0 1.285918,1.332101 1.529819,2.542971 l 5.214387,21.88656 c 0.222257,1.096857 -0.118343,2.228348 -0.903463,3.013465 -0.788001,0.788003 -1.739087,0.948199 -2.833056,0.723054 L 35.766546,36.225138 C 34.558562,35.97835 33.315945,34.602953 33.315945,34.602953 l 2.389984,-2.389987 5.772916,-5.772916 c -8.440001,-8.44 -13.56097,-23.0571205 -1.778451,-35.8441271 l -0.788675,-1.8779209 c -0.536875,0.450294 -2.75406,2.6328291 -3.256305,3.1350724 -9.535412,9.5354118 -9.516649,25.0226976 0.04905,34.5884176 l -5.75704,5.75704 c -1.062215,1.062216 -1.451886,2.623791 -1.013146,4.06413 0.438741,1.440345 1.632291,2.521322 3.108715,2.817181 l 28.832814,5.80466 c 1.333543,0.271329 2.713273,-0.144322 3.674462,-1.10551 0.96119,-0.961192 1.378283,-2.34236 1.109845,-3.681679 z" /><path
           sodipodi:nodetypes="cssccc"
           inkscape:connector-curvature="0"
           id="path830"
           d="m 39.392836,-11.257214 c -1.185646,-0.01227 -1.585265,1.125559 -1.394332,2.2957939 1.500561,9.19700703 4.864262,17.29997 12.123928,23.6102141 1.572233,1.366616 3.72969,0.425382 2.778176,-1.427771 -6.719651,-7.664045 -10.08056,-15.5864549 -12.123928,-23.610214 -0.261097,-0.526778 -0.795938,-0.86226 -1.383844,-0.868023 z"
           style="color:#000000;font-style:normal;font-variant:normal;font-weight:normal;font-stretch:normal;font-size:medium;line-height:normal;font-family:sans-serif;font-variant-ligatures:normal;font-variant-position:normal;font-variant-caps:normal;font-variant-numeric:normal;font-variant-alternates:normal;font-feature-settings:normal;text-indent:0;text-align:start;text-decoration:none;text-decoration-line:none;text-decoration-style:solid;text-decoration-color:#000000;letter-spacing:normal;word-spacing:normal;text-transform:none;writing-mode:lr-tb;direction:ltr;text-orientation:mixed;dominant-baseline:auto;baseline-shift:baseline;text-anchor:start;white-space:normal;shape-padding:0;clip-rule:nonzero;display:inline;overflow:visible;visibility:visible;opacity:1;isolation:auto;mix-blend-mode:normal;color-interpolation:sRGB;color-interpolation-filters:linearRGB;solid-color:#000000;solid-opacity:1;vector-effect:none;fill:#2a4b34;fill-opacity:1;fill-rule:nonzero;stroke:none;stroke-width:3.19778562;stroke-linecap:round;stroke-linejoin:round;stroke-miterlimit:4;stroke-dasharray:none;stroke-dashoffset:0;stroke-opacity:1;color-rendering:auto;image-rendering:auto;shape-rendering:auto;text-rendering:auto;enable-background:accumulate" /></g><g
         transform="matrix(-0.92389727,0.1629079,-0.16290801,-0.9238966,111.21846,16.279855)"
         id="g842"
         style="fill:#8d2a35;fill-opacity:1;stroke-width:1.06592858"><path
           d="M 65.660141,40.097321 59.855477,11.264503 C 59.561056,9.7895228 58.475747,8.5974155 57.035407,8.1586731 55.595063,7.7199327 54.036378,8.1096042 52.974159,9.1718197 l -2.020517,2.0205183 2.071033,3.701885 2.209583,-2.209587 c 0,0 1.285918,1.332101 1.529819,2.542971 l 5.214387,21.88656 c 0.222257,1.096857 -0.118343,2.228348 -0.903463,3.013465 -0.788001,0.788003 -1.739087,0.948199 -2.833056,0.723054 L 35.766546,36.225138 C 34.558562,35.97835 33.315945,34.602953 33.315945,34.602953 l 2.389984,-2.389987 5.772916,-5.772916 c -8.440001,-8.44 -13.56097,-23.0571205 -1.778451,-35.8441271 l -0.788675,-1.8779209 c -0.536875,0.450294 -2.75406,2.6328291 -3.256305,3.1350724 -9.535412,9.5354118 -9.516649,25.0226976 0.04905,34.5884176 l -5.75704,5.75704 c -1.062215,1.062216 -1.451886,2.623791 -1.013146,4.06413 0.438741,1.440345 1.632291,2.521322 3.108715,2.817181 l 28.832814,5.80466 c 1.333543,0.271329 2.713273,-0.144322 3.674462,-1.10551 0.96119,-0.961192 1.378283,-2.34236 1.109845,-3.681679 z"
           id="path838"
           inkscape:connector-curvature="0"
           style="fill:#8d2a35;fill-opacity:1;stroke-width:1.06592822"
           sodipodi:nodetypes="ccsscccccssccccccscssccsc" /><path
           style="color:#000000;font-style:normal;font-variant:normal;font-weight:normal;font-stretch:normal;font-size:medium;line-height:normal;font-family:sans-serif;font-variant-ligatures:normal;font-variant-position:normal;font-variant-caps:normal;font-variant-numeric:normal;font-variant-alternates:normal;font-feature-settings:normal;text-indent:0;text-align:start;text-decoration:none;text-decoration-line:none;text-decoration-style:solid;text-decoration-color:#000000;letter-spacing:normal;word-spacing:normal;text-transform:none;writing-mode:lr-tb;direction:ltr;text-orientation:mixed;dominant-baseline:auto;baseline-shift:baseline;text-anchor:start;white-space:normal;shape-padding:0;clip-rule:nonzero;display:inline;overflow:visible;visibility:visible;opacity:1;isolation:auto;mix-blend-mode:normal;color-interpolation:sRGB;color-interpolation-filters:linearRGB;solid-color:#000000;solid-opacity:1;vector-effect:none;fill:#8d2a35;fill-opacity:1;fill-rule:nonzero;stroke:none;stroke-width:3.19778562;stroke-linecap:round;stroke-linejoin:round;stroke-miterlimit:4;stroke-dasharray:none;stroke-dashoffset:0;stroke-opacity:1;color-rendering:auto;image-rendering:auto;shape-rendering:auto;text-rendering:auto;enable-background:accumulate"
           d="m 39.392836,-11.257214 c -1.185646,-0.01227 -1.585265,1.125559 -1.394332,2.2957939 1.500561,9.19700703 4.864262,17.29997 12.123928,23.6102141 1.572233,1.366616 3.72969,0.425382 2.778176,-1.427771 -6.719651,-7.664045 -10.08056,-15.5864549 -12.123928,-23.610214 -0.261097,-0.526778 -0.795938,-0.86226 -1.383844,-0.868023 z"
           id="path840"
           inkscape:connector-curvature="0"
           sodipodi:nodetypes="cssccc" /></g></g></g></svg>