<?xml version="1.0" encoding="UTF-8" standalone="no"?>
<!-- Generator: Adobe Illustrator 16.0.0, SVG Export Plug-In . SVG Version: 6.00 Build 0)  -->

<svg
   xmlns:dc="http://purl.org/dc/elements/1.1/"
   xmlns:cc="http://creativecommons.org/ns#"
   xmlns:rdf="http://www.w3.org/1999/02/22-rdf-syntax-ns#"
   xmlns:svg="http://www.w3.org/2000/svg"
   xmlns="http://www.w3.org/2000/svg"
   xmlns:sodipodi="http://sodipodi.sourceforge.net/DTD/sodipodi-0.dtd"
   xmlns:inkscape="http://www.inkscape.org/namespaces/inkscape"
   version="1.1"
   id="Capa_1"
   x="0px"
   y="0px"
   width="100"
   height="100"
   viewBox="0 0 100 100"
   style="shape-rendering:crispEdges;enable-background:new"
   xml:space="preserve"
   sodipodi:docname="2-arrows-button(color).svg"
   inkscape:label="Arrows"
   inkscape:version="0.92.2 (5c3e80d, 2017-08-06)"><metadata
     id="metadata56"><rdf:RDF><cc:Work
         rdf:about=""><dc:format>image/svg+xml</dc:format><dc:type
           rdf:resource="http://purl.org/dc/dcmitype/StillImage" /><dc:title></dc:title></cc:Work></rdf:RDF></metadata><defs
     id="defs54" /><sodipodi:namedview
     pagecolor="#d8b35c"
     bordercolor="#a62626"
     borderopacity="1"
     objecttolerance="10"
     gridtolerance="10"
     guidetolerance="10"
     inkscape:pageopacity="1"
     inkscape:pageshadow="2"
     inkscape:window-width="1920"
     inkscape:window-height="1023"
     id="namedview52"
     showgrid="false"
     inkscape:zoom="6"
     inkscape:cx="32.891795"
     inkscape:cy="32.397135"
     inkscape:window-x="-4"
     inkscape:window-y="-4"
     inkscape:window-maximized="1"
     inkscape:current-layer="g9"
     inkscape:showpageshadow="false" /><g
     id="g19"
     inkscape:label="Arrows"
     transform="translate(0,36)"><g
       id="g9"
       inkscape:label="updown"><path
         d="M 81.002177,22.682971 57.031442,6.7464275 C 55.806937,5.9294242 54.230861,5.8555156 52.930448,6.5486688 51.630037,7.2418226 50.821023,8.5901778 50.821023,10.060382 v 2.796585 l 3.995124,1.128624 v -3.058269 c 0,0 1.811788,0.03196 2.818558,0.701146 L 76.389807,23.16638 c 0.912887,0.605264 1.460219,1.624019 1.460219,2.710693 0,1.090668 -0.547332,1.859728 -1.460219,2.460994 L 57.634705,40.690985 c -1.00677,0.66519 -2.818558,0.573302 -2.818558,0.573302 v -3.30796 -7.990246 c -11.681739,0 -25.341404,-6.571776 -26.036557,-23.5750172 L 26.934185,5.6372552 c -0.05992,0.6831661 -0.0839,3.7279761 -0.0839,4.4231268 0,13.197888 10.7309,23.902818 23.970737,23.902818 v 7.968273 c 0,1.470204 0.811011,2.820557 2.111422,3.51371 1.300412,0.693153 2.874492,0.615249 4.100992,-0.201755 L 81.004164,29.306884 c 1.110644,-0.735101 1.77783,-1.977586 1.77783,-3.30796 0,-1.330376 -0.667186,-2.574857 -1.779826,-3.315953 z"
         id="down"
         inkscape:connector-curvature="0"
         style="fill:#2a4b34;fill-opacity:1;stroke-width:0.99999988"
         sodipodi:nodetypes="ccsscccccssccccccscssccsc" /><path
         sodipodi:nodetypes="ccsscccccssccccccscssccsc"
         style="fill:#8d2a35;fill-opacity:1;stroke-width:0.99999988"
         inkscape:connector-curvature="0"
         id="up"
         d="M 24.602286,4.091328 48.57302,20.027874 c 1.224507,0.817003 2.800583,0.890911 4.100995,0.197757 1.300413,-0.693152 2.109425,-2.041507 2.109425,-3.511713 v -2.796586 l -3.995123,-1.128623 v 3.058268 c 0,0 -1.811789,-0.03196 -2.81856,-0.701145 L 29.214653,3.6079163 C 28.30177,3.0026575 27.754438,1.9839005 27.754438,0.89722546 c 0,-1.09066623 0.547332,-1.85972915 1.460215,-2.46099506 L 47.969757,-13.91669 c 1.006771,-0.665187 2.81856,-0.573299 2.81856,-0.573299 v 3.307962 7.9902451 c 11.68174,0 25.341406,6.5717746 26.036555,23.5750169 l 1.845408,0.75381 c 0.05992,-0.683165 0.0839,-3.727975 0.0839,-4.423127 0,-13.1978874 -10.730901,-23.9028201 -23.970738,-23.9028201 v -7.9682729 c 0,-1.470205 -0.81101,-2.820555 -2.111421,-3.51371 -1.300413,-0.693153 -2.874491,-0.615248 -4.100994,0.201754 L 24.600286,-2.5325869 c -1.110644,0.7351031 -1.777828,1.97758691 -1.777828,3.30796164 0,1.33037656 0.667184,2.57485616 1.779828,3.31595326 z" /><text
         xml:space="preserve"
         style="font-style:normal;font-variant:normal;font-weight:normal;font-stretch:normal;font-size:18.91292953px;line-height:1.25;font-family:'Bookman Old Style';-inkscape-font-specification:'Bookman Old Style';font-variant-ligatures:normal;font-variant-caps:normal;font-variant-numeric:normal;font-feature-settings:normal;text-align:start;letter-spacing:0px;word-spacing:0px;writing-mode:lr-tb;text-anchor:start;fill:#352d5d;fill-opacity:1;stroke:none;stroke-width:0.99999994"
         x="17.813192"
         y="-21.230871"
         id="text4506"><tspan
           sodipodi:role="line"
           id="tspan4504"
           x="17.813192"
           y="-21.230871"
           style="font-style:normal;font-variant:normal;font-weight:normal;font-stretch:normal;font-family:Arial;-inkscape-font-specification:Arial;fill:#352d5d;fill-opacity:1;stroke-width:0.99999994">RESET</tspan></text>
<text
         id="text4510"
         y="62.269131"
         x="17.813192"
         style="font-style:normal;font-variant:normal;font-weight:normal;font-stretch:normal;font-size:18.91292953px;line-height:1.25;font-family:'Bookman Old Style';-inkscape-font-specification:'Bookman Old Style';font-variant-ligatures:normal;font-variant-caps:normal;font-variant-numeric:normal;font-feature-settings:normal;text-align:start;letter-spacing:0px;word-spacing:0px;writing-mode:lr-tb;text-anchor:start;fill:#352d5d;fill-opacity:1;stroke:none;stroke-width:0.99999994"
         xml:space="preserve"><tspan
           style="font-style:normal;font-variant:normal;font-weight:normal;font-stretch:normal;font-family:Arial;-inkscape-font-specification:Arial;fill:#352d5d;fill-opacity:1;stroke-width:0.99999994"
           y="62.269131"
           x="17.813192"
           id="tspan4508"
           sodipodi:role="line">RESET</tspan></text>
</g></g></svg>