<?xml version="1.0" encoding="UTF-8" standalone="no"?>
<!-- Generator: Adobe Illustrator 16.0.0, SVG Export Plug-In . SVG Version: 6.00 Build 0)  -->

<svg
   xmlns:dc="http://purl.org/dc/elements/1.1/"
   xmlns:cc="http://creativecommons.org/ns#"
   xmlns:rdf="http://www.w3.org/1999/02/22-rdf-syntax-ns#"
   xmlns:svg="http://www.w3.org/2000/svg"
   xmlns="http://www.w3.org/2000/svg"
   xmlns:sodipodi="http://sodipodi.sourceforge.net/DTD/sodipodi-0.dtd"
   xmlns:inkscape="http://www.inkscape.org/namespaces/inkscape"
   version="1.1"
   id="Capa_1"
   x="0px"
   y="0px"
   width="64px"
   height="64px"
   viewBox="0 0 64 64"
   style="enable-background:new 0 0 64 64;"
   xml:space="preserve"
   sodipodi:docname="2-arrows-button.svg"
   inkscape:label="Arrows"
   inkscape:version="0.92.2 (5c3e80d, 2017-08-06)"
   shape-rendering="crispEdges"><metadata
     id="metadata56"><rdf:RDF><cc:Work
         rdf:about=""><dc:format>image/svg+xml</dc:format><dc:type
           rdf:resource="http://purl.org/dc/dcmitype/StillImage" /><dc:title></dc:title></cc:Work></rdf:RDF></metadata><defs
     id="defs54" /><sodipodi:namedview
     pagecolor="#eacca0"
     bordercolor="#666666"
     borderopacity="1"
     objecttolerance="10"
     gridtolerance="10"
     guidetolerance="10"
     inkscape:pageopacity="1"
     inkscape:pageshadow="2"
     inkscape:window-width="1920"
     inkscape:window-height="1023"
     id="namedview52"
     showgrid="false"
     inkscape:zoom="21.199679"
     inkscape:cx="32"
     inkscape:cy="32"
     inkscape:window-x="-4"
     inkscape:window-y="-4"
     inkscape:window-maximized="1"
     inkscape:current-layer="g9"
     inkscape:showpageshadow="false" /><g
     id="g19"
     inkscape:label="Arrows"><g
       id="g9"
       inkscape:label="updown"><path
         d="m 46.109,36.354 -12,-7.978 C 33.496,27.967 32.707,27.93 32.056,28.277 31.405,28.624 31,29.299 31,30.035 v 1.4 L 33,32 v -1.531 c 0,0 0.907,0.016 1.411,0.351 l 9.389,5.776 c 0.457,0.303 0.731,0.813 0.731,1.357 0,0.546 -0.274,0.931 -0.731,1.232 l -9.389,6.184 C 33.907,45.702 33,45.656 33,45.656 V 44 40 C 27.152,40 20.313829,36.710101 19.965829,28.198101 L 19.042,27.820737 C 19.012,28.162737 19,29.687 19,30.035 c 0,6.607 5.372,11.966 12,11.966 v 3.989 c 0,0.736 0.406,1.412 1.057,1.759 0.651,0.347 1.439,0.308 2.053,-0.101 l 12,-7.978 C 46.666,39.302 47,38.68 47,38.014 c 0,-0.666 -0.334,-1.289 -0.891,-1.66 z"
         id="down"
         inkscape:connector-curvature="0"
         style="fill:#2a4b34;fill-opacity:1"
         sodipodi:nodetypes="ccsscccccssccccccscssccsc" /><path
         sodipodi:nodetypes="ccsscccccssccccccscssccsc"
         style="fill:#80353d;fill-opacity:1"
         inkscape:connector-curvature="0"
         id="up"
         d="m 17.891,27.016737 12,7.978 c 0.613,0.409 1.402,0.446 2.053,0.099 0.651,-0.347 1.056,-1.022 1.056,-1.758 v -1.4 l -2,-0.565 v 1.531 c 0,0 -0.907,-0.016 -1.411,-0.351 l -9.389,-5.776 c -0.457,-0.303 -0.731,-0.813 -0.731,-1.357 0,-0.546 0.274,-0.931 0.731,-1.232 l 9.389,-6.184 c 0.504,-0.333 1.411,-0.287 1.411,-0.287 v 1.656 4 c 5.848,0 12.686171,3.289899 13.034171,11.801899 L 44.958,35.55 C 44.988,35.208 45,33.683737 45,33.335737 c 0,-6.607 -5.372,-11.966 -12,-11.966 v -3.989 c 0,-0.736 -0.406,-1.412 -1.057,-1.759 -0.651,-0.347 -1.439,-0.308 -2.053,0.101 l -12,7.978 c -0.556,0.368 -0.89,0.99 -0.89,1.656 0,0.666 0.334,1.289 0.891,1.66 z" /></g></g></svg>