<svg xmlns="http://www.w3.org/2000/svg" xmlns:xlink="http://www.w3.org/1999/xlink" width="100" height="100" shape-rendering="crispEdges"><path d="M0-.271003723h100.271003723v100H0z" fill="#bdc946" fill-opacity=".99271845" stroke="#2a4b34"/><text xml:space="preserve" x="15.793134" y="22.096418" transform="matrix(1.0000026 0 0 .99999743 0 36)" font-size="20.52575302" font-family="Bookman Old Style" letter-spacing="0" word-spacing="0" writing-mode="lr-tb"><tspan x="15.793134" y="22.096418" font-family="Arial">RESET</tspan></text><g transform="matrix(-.93111405 .03845811 -.27276144 -1.0315768 108.27102 63.588367000000005)" fill="#8d2a35"><use xlink:href="#B" dominant-baseline="auto"/><use xlink:href="#C"/></g><g transform="matrix(.93110674 -.03845464 .27276395 1.0315757 -7.9712858 35.93758017)" fill="#182954"><use xlink:href="#B" dominant-baseline="auto"/><use xlink:href="#C"/></g><defs ><path id="B" d="M10.623771675 5.854227203c-1.097407736.18181489-1.823257242 8.073220195-1.456216218 9.123291746 2.884613878 8.252630284 1.62128311 11.125916198 13.556956832 21.870833543 1.452455274 1.307551532 3.5151282-.75659245 2.334140284-2.313705057-7.4567591-5.986101162-11.174985258-12.487067498-12.879449136-20.109315652-.327041298-.44415364-1.011331272-8.661554697-1.555434533-8.571104092zm32.09216545 49.942196654L32.655984246 30.10350696c-.512297927-1.314765685-1.70920896-2.239344156-3.11140182-2.410054003s-2.778772602.443230927-3.587105824 1.597652082l-3.29910033 5.58344168 2.245471248 1.998761183 3.713979136-4.7049118s1.40505805 1.021237384 1.82765553 2.10022266l8.383006067 19.371453534c.384027238.977175032.253677514 2.07804215-.343787463 2.931311328s-1.452260254 1.159348843-2.499647186 1.129554336l-21.518376076-.612108018C13.31042725 57.057613476 11.938321424 55.989321 11.938321424 55.989321l1.818741318-2.597448138 4.393102078-6.274031087C5.319042814 39.88208892 2.000625727 25.04360594 10.803306908 11.310268175l-.179535234-5.456040973c-.422658442.503486274-2.428583688 2.665597053-4.978805833 8.224988126-5.27481541 11.498900958-3.225466967 26.70124273 7.170529422 33.980650978l-4.38102068 6.25677698c-.808329445 1.154420966-.913951744 2.660635283-.273961943 3.919885376s1.918801818 2.063527724 3.33105568 2.096349715l27.58402669.665812458c1.276251138.03343525 2.48326017-.575352212 3.214710677-1.619975818s.891797623-2.38863163.425605352-3.58229323z"/><path id="C" d="M8.8927354 14.542882c-.860524.350688-.9832504 1.494767-1.3869934 2.23034-1.4609517 3.67197-2.2548345 7.635462-1.9450354 11.595028.2333565 7.11134 4.375029 13.76333 10.1933724 17.720248.51626.440887 1.383493.752036 1.715733 1.2399-1.853638 2.82423-3.984486 5.475587-5.6765 8.4003-.348014.906977.904298 1.13177 1.462462 1.50163 1.852916.49115 3.81948.282174 5.71884.427805 5.908274.1355 11.817817.466812 17.728187.363767 2.110757-.07487 3.307976-2.766165 2.40462-4.552793-2.454355-6.09386-5.12676-12.099536-7.775344-18.111263-.612295-1.270513-1.17928-2.812452-2.524875-3.468386-.857183.114446-1.223162 1.140468-1.81525 1.679488-.88727 1.03346-1.650507 2.233938-2.684083 3.11149-1.074702.461346-1.745933-.65866-2.460712-1.220213-3.654717-3.526247-7.557974-7.146846-9.45441-11.962322-1.183478-2.837413-1.77221-5.895416-2.9670033-8.721047-.118069-.169553-.3281195-.262452-.5330073-.233952z"/></defs></svg>