<?xml version="1.0" encoding="UTF-8" standalone="no"?>
<!-- Generator: Adobe Illustrator 16.0.0, SVG Export Plug-In . SVG Version: 6.00 Build 0)  -->

<svg
   xmlns:dc="http://purl.org/dc/elements/1.1/"
   xmlns:cc="http://creativecommons.org/ns#"
   xmlns:rdf="http://www.w3.org/1999/02/22-rdf-syntax-ns#"
   xmlns:svg="http://www.w3.org/2000/svg"
   xmlns="http://www.w3.org/2000/svg"
   xmlns:sodipodi="http://sodipodi.sourceforge.net/DTD/sodipodi-0.dtd"
   xmlns:inkscape="http://www.inkscape.org/namespaces/inkscape"
   version="1.1"
   id="Capa_1"
   x="0px"
   y="0px"
   width="100"
   height="100"
   viewBox="0 0 100 100"
   style="shape-rendering:crispEdges;enable-background:new"
   xml:space="preserve"
   sodipodi:docname="reset-button(orig).svg"
   inkscape:label="Arrows"
   inkscape:version="0.92.2 (5c3e80d, 2017-08-06)"
   inkscape:export-filename="D:\Wrzutka\Captcha\2-arrows-button(color).png"
   inkscape:export-xdpi="96"
   inkscape:export-ydpi="96"><metadata
     id="metadata56"><rdf:RDF><cc:Work
         rdf:about=""><dc:format>image/svg+xml</dc:format><dc:type
           rdf:resource="http://purl.org/dc/dcmitype/StillImage" /><dc:title /></cc:Work></rdf:RDF></metadata><defs
     id="defs54" /><sodipodi:namedview
     pagecolor="#8ab59c"
     bordercolor="#a62626"
     borderopacity="1"
     objecttolerance="10"
     gridtolerance="10"
     guidetolerance="10"
     inkscape:pageopacity="0"
     inkscape:pageshadow="2"
     inkscape:window-width="1920"
     inkscape:window-height="1023"
     id="namedview52"
     showgrid="false"
     inkscape:zoom="6.9772452"
     inkscape:cx="29.441537"
     inkscape:cy="50.58956"
     inkscape:window-x="-4"
     inkscape:window-y="-4"
     inkscape:window-maximized="1"
     inkscape:current-layer="g9"
     inkscape:showpageshadow="false"
     inkscape:pagecheckerboard="false" /><g
     id="g19"
     inkscape:label="Arrows"
     transform="translate(0,36)"><g
       id="g9"
       inkscape:label="updown"><rect
         style="opacity:1;fill:#bdc946;fill-opacity:0.99271845;stroke:#2a4b34;stroke-width:1;stroke-linecap:square;stroke-linejoin:miter;stroke-miterlimit:4;stroke-dasharray:none;stroke-dashoffset:0;stroke-opacity:1;paint-order:stroke markers fill"
         id="rect844"
         width="100.271"
         height="100"
         x="0"
         y="-36.271004" /><text
         xml:space="preserve"
         style="font-style:normal;font-variant:normal;font-weight:normal;font-stretch:normal;font-size:20.52575302px;line-height:1.25;font-family:'Bookman Old Style';-inkscape-font-specification:'Bookman Old Style';font-variant-ligatures:normal;font-variant-caps:normal;font-variant-numeric:normal;font-feature-settings:normal;text-align:start;letter-spacing:0px;word-spacing:0px;writing-mode:lr-tb;text-anchor:start;fill:#000000;fill-opacity:1;stroke:none;stroke-width:0.99999976"
         x="15.793134"
         y="22.096418"
         id="text4506"
         transform="scale(1.0000026,0.99999743)"><tspan
           sodipodi:role="line"
           id="tspan4504"
           x="15.793134"
           y="22.096418"
           style="font-style:normal;font-variant:normal;font-weight:normal;font-stretch:normal;font-family:Arial;-inkscape-font-specification:Arial;fill:#000000;fill-opacity:1;stroke-width:0.99999976">RESET</tspan></text>
<g
         style="fill:#8d2a35;fill-opacity:1;stroke:#8d2a35;stroke-width:0;stroke-miterlimit:4;stroke-dasharray:none;stroke-opacity:1"
         transform="matrix(-0.93111405,0.03845811,-0.27276144,-1.0315768,108.27102,27.588367)"
         id="g931"><g
           id="g927"
           transform="matrix(0.92389201,-0.1629079,0.16290708,0.9238966,-24.47908,29.447201)"
           style="fill:#8d2a35;fill-opacity:1;stroke:#8d2a35;stroke-width:0;stroke-miterlimit:4;stroke-dasharray:none;stroke-opacity:1"><path
             id="path925"
             style="color:#000000;font-style:normal;font-variant:normal;font-weight:normal;font-stretch:normal;font-size:medium;line-height:normal;font-family:sans-serif;font-variant-ligatures:normal;font-variant-position:normal;font-variant-caps:normal;font-variant-numeric:normal;font-variant-alternates:normal;font-feature-settings:normal;text-indent:0;text-align:start;text-decoration:none;text-decoration-line:none;text-decoration-style:solid;text-decoration-color:#000000;letter-spacing:normal;word-spacing:normal;text-transform:none;writing-mode:lr-tb;direction:ltr;text-orientation:mixed;dominant-baseline:auto;baseline-shift:baseline;text-anchor:start;white-space:normal;shape-padding:0;clip-rule:nonzero;display:inline;overflow:visible;visibility:visible;opacity:1;isolation:auto;mix-blend-mode:normal;color-interpolation:sRGB;color-interpolation-filters:linearRGB;solid-color:#000000;solid-opacity:1;vector-effect:none;fill:#8d2a35;fill-opacity:1;fill-rule:nonzero;stroke:#8d2a35;stroke-width:0;stroke-linecap:round;stroke-linejoin:round;stroke-miterlimit:4;stroke-dasharray:none;stroke-dashoffset:0;stroke-opacity:1;color-rendering:auto;image-rendering:auto;shape-rendering:auto;text-rendering:auto;enable-background:accumulate"
             d="m 41.215842,-18.268914 c -1.185646,-0.01227 -3.408271,8.137259 -3.217338,9.3074939 1.500561,9.19700703 -0.357443,11.9793556 10.183063,25.4679311 1.282677,1.641428 3.830013,-0.14358 2.878499,-1.996733 -6.719651,-7.6640453 -9.419515,-15.17656944 -9.797907,-23.4933997 -0.261097,-0.526778 0.541589,-9.2795293 -0.04632,-9.2852923 z M 65.660141,40.097321 59.855477,11.264503 C 59.561056,9.7895228 58.475747,8.5974155 57.035407,8.1586731 55.595063,7.7199327 54.036378,8.1096042 52.974159,9.1718197 l -4.496673,5.2504773 1.987197,2.5138 4.769575,-4.251461 c 0,0 1.285918,1.332101 1.529819,2.542971 l 5.214387,21.88656 c 0.222257,1.096857 -0.118343,2.228348 -0.903463,3.013465 -0.788001,0.788003 -1.739087,0.948199 -2.833056,0.723054 L 35.766546,36.225138 C 34.558562,35.97835 33.315945,34.602953 33.315945,34.602953 l 2.389984,-2.389987 5.772916,-5.772916 C 29.348817,16.469421 28.611894,0.27872005 40.394413,-12.508287 l 0.821429,-5.760627 c -0.536875,0.450294 -3.042774,2.348645 -6.748868,7.712491 -7.665591,11.09444025 -8.328209,27.432195 1.23749,36.997915 l -5.75704,5.75704 c -1.062215,1.062216 -1.451886,2.623791 -1.013146,4.06413 0.438741,1.440345 1.632291,2.521322 3.108715,2.817181 l 28.832814,5.80466 c 1.333543,0.271329 2.713273,-0.144322 3.674462,-1.10551 0.96119,-0.961192 1.378283,-2.34236 1.109845,-3.681679 z"
             inkscape:connector-curvature="0" /></g><path
           style="opacity:1;fill:#8d2a35;fill-opacity:1;fill-rule:nonzero;stroke:#8d2a35;stroke-width:0;stroke-linecap:butt;stroke-linejoin:miter;stroke-miterlimit:4;stroke-dasharray:none;stroke-dashoffset:0;stroke-opacity:1;paint-order:stroke markers fill"
           d="M 8.8927354,50.542882 C 8.0322114,50.89357 7.909485,52.037649 7.505742,52.773221 6.0447903,56.44519 5.2509075,60.408683 5.5607066,64.368249 c 0.2333565,7.11134 4.3750289,13.763329 10.1933724,17.720248 0.51626,0.440887 1.383493,0.752036 1.715733,1.23989 -1.853638,2.824231 -3.984486,5.475587 -5.676501,8.40029 -0.348014,0.906977 0.904298,1.131771 1.462462,1.50163 1.852916,0.491149 3.819481,0.282174 5.718841,0.427805 5.908274,0.1355 11.817817,0.466812 17.728187,0.363767 2.110757,-0.07487 3.307976,-2.766165 2.404619,-4.552793 -2.454355,-6.093859 -5.126761,-12.099536 -7.775344,-18.111263 -0.612295,-1.270513 -1.179279,-2.812452 -2.524875,-3.468386 -0.857183,0.114446 -1.223162,1.140468 -1.815251,1.679488 -0.887271,1.033459 -1.650507,2.233938 -2.684083,3.111491 -1.074702,0.461346 -1.745933,-0.65866 -2.460712,-1.220213 C 18.192438,67.933956 14.289181,64.313357 12.392746,59.497881 11.209268,56.660468 10.620535,53.602465 9.4257427,50.776834 9.3076736,50.607281 9.0976232,50.514382 8.8927354,50.542882 Z"
           id="path929"
           inkscape:connector-curvature="0"
           transform="translate(0,-36)" /></g><g
         id="g830"
         transform="matrix(0.93110674,-0.03845464,0.27276395,1.0315757,-7.9712858,-0.06241983)"
         style="fill:#182954;fill-opacity:1;stroke:#8d2a35;stroke-width:0;stroke-miterlimit:4;stroke-dasharray:none;stroke-opacity:1"><g
           style="fill:#182954;fill-opacity:1;stroke:#8d2a35;stroke-width:0;stroke-miterlimit:4;stroke-dasharray:none;stroke-opacity:1"
           transform="matrix(0.92389201,-0.1629079,0.16290708,0.9238966,-24.47908,29.447201)"
           id="g826"><path
             inkscape:connector-curvature="0"
             d="m 41.215842,-18.268914 c -1.185646,-0.01227 -3.408271,8.137259 -3.217338,9.3074939 1.500561,9.19700703 -0.357443,11.9793556 10.183063,25.4679311 1.282677,1.641428 3.830013,-0.14358 2.878499,-1.996733 -6.719651,-7.6640453 -9.419515,-15.17656944 -9.797907,-23.4933997 -0.261097,-0.526778 0.541589,-9.2795293 -0.04632,-9.2852923 z M 65.660141,40.097321 59.855477,11.264503 C 59.561056,9.7895228 58.475747,8.5974155 57.035407,8.1586731 55.595063,7.7199327 54.036378,8.1096042 52.974159,9.1718197 l -4.496673,5.2504773 1.987197,2.5138 4.769575,-4.251461 c 0,0 1.285918,1.332101 1.529819,2.542971 l 5.214387,21.88656 c 0.222257,1.096857 -0.118343,2.228348 -0.903463,3.013465 -0.788001,0.788003 -1.739087,0.948199 -2.833056,0.723054 L 35.766546,36.225138 C 34.558562,35.97835 33.315945,34.602953 33.315945,34.602953 l 2.389984,-2.389987 5.772916,-5.772916 C 29.348817,16.469421 28.611894,0.27872005 40.394413,-12.508287 l 0.821429,-5.760627 c -0.536875,0.450294 -3.042774,2.348645 -6.748868,7.712491 -7.665591,11.09444025 -8.328209,27.432195 1.23749,36.997915 l -5.75704,5.75704 c -1.062215,1.062216 -1.451886,2.623791 -1.013146,4.06413 0.438741,1.440345 1.632291,2.521322 3.108715,2.817181 l 28.832814,5.80466 c 1.333543,0.271329 2.713273,-0.144322 3.674462,-1.10551 0.96119,-0.961192 1.378283,-2.34236 1.109845,-3.681679 z"
             style="color:#000000;font-style:normal;font-variant:normal;font-weight:normal;font-stretch:normal;font-size:medium;line-height:normal;font-family:sans-serif;font-variant-ligatures:normal;font-variant-position:normal;font-variant-caps:normal;font-variant-numeric:normal;font-variant-alternates:normal;font-feature-settings:normal;text-indent:0;text-align:start;text-decoration:none;text-decoration-line:none;text-decoration-style:solid;text-decoration-color:#000000;letter-spacing:normal;word-spacing:normal;text-transform:none;writing-mode:lr-tb;direction:ltr;text-orientation:mixed;dominant-baseline:auto;baseline-shift:baseline;text-anchor:start;white-space:normal;shape-padding:0;clip-rule:nonzero;display:inline;overflow:visible;visibility:visible;opacity:1;isolation:auto;mix-blend-mode:normal;color-interpolation:sRGB;color-interpolation-filters:linearRGB;solid-color:#000000;solid-opacity:1;vector-effect:none;fill:#182954;fill-opacity:1;fill-rule:nonzero;stroke:#8d2a35;stroke-width:0;stroke-linecap:round;stroke-linejoin:round;stroke-miterlimit:4;stroke-dasharray:none;stroke-dashoffset:0;stroke-opacity:1;color-rendering:auto;image-rendering:auto;shape-rendering:auto;text-rendering:auto;enable-background:accumulate"
             id="path824" /></g><path
           transform="translate(0,-36)"
           inkscape:connector-curvature="0"
           id="path828"
           d="M 8.8927354,50.542882 C 8.0322114,50.89357 7.909485,52.037649 7.505742,52.773221 6.0447903,56.44519 5.2509075,60.408683 5.5607066,64.368249 c 0.2333565,7.11134 4.3750289,13.763329 10.1933724,17.720248 0.51626,0.440887 1.383493,0.752036 1.715733,1.23989 -1.853638,2.824231 -3.984486,5.475587 -5.676501,8.40029 -0.348014,0.906977 0.904298,1.131771 1.462462,1.50163 1.852916,0.491149 3.819481,0.282174 5.718841,0.427805 5.908274,0.1355 11.817817,0.466812 17.728187,0.363767 2.110757,-0.07487 3.307976,-2.766165 2.404619,-4.552793 -2.454355,-6.093859 -5.126761,-12.099536 -7.775344,-18.111263 -0.612295,-1.270513 -1.179279,-2.812452 -2.524875,-3.468386 -0.857183,0.114446 -1.223162,1.140468 -1.815251,1.679488 -0.887271,1.033459 -1.650507,2.233938 -2.684083,3.111491 -1.074702,0.461346 -1.745933,-0.65866 -2.460712,-1.220213 C 18.192438,67.933956 14.289181,64.313357 12.392746,59.497881 11.209268,56.660468 10.620535,53.602465 9.4257427,50.776834 9.3076736,50.607281 9.0976232,50.514382 8.8927354,50.542882 Z"
           style="opacity:1;fill:#182954;fill-opacity:1;fill-rule:nonzero;stroke:#8d2a35;stroke-width:0;stroke-linecap:butt;stroke-linejoin:miter;stroke-miterlimit:4;stroke-dasharray:none;stroke-dashoffset:0;stroke-opacity:1;paint-order:stroke markers fill" /></g></g></g></svg>