<?xml version="1.0" encoding="UTF-8" standalone="no"?>
<!-- Generator: Adobe Illustrator 16.0.0, SVG Export Plug-In . SVG Version: 6.00 Build 0)  -->
<svg id="Capa_1" xml:space="preserve" height="100" viewBox="0 0 100 100" xmlns:dc="http://purl.org/dc/elements/1.1/" style="enable-background:new;shape-rendering:crispEdges" width="100" version="1.1" xmlns:cc="http://creativecommons.org/ns#" xmlns:rdf="http://www.w3.org/1999/02/22-rdf-syntax-ns#" xmlns="http://www.w3.org/2000/svg" y="0px" x="0px"><metadata id="metadata56"><rdf:RDF><cc:Work rdf:about=""><dc:format>image/svg+xml</dc:format><dc:type rdf:resource="http://purl.org/dc/dcmitype/StillImage"/><dc:title/></cc:Work></rdf:RDF></metadata><g id="g19" transform="translate(0,36)"><g id="g9"><rect id="rect844" style="paint-order:stroke markers fill" fill-opacity=".99272" height="100" width="100.27" stroke="#2a4b34" stroke-linecap="square" y="-36.271" x="0" stroke-width="2" fill="#bdc946"/><text id="text4506" style="font-variant-ligatures:normal;letter-spacing:0px;font-variant-numeric:normal;word-spacing:0px;font-variant-caps:normal;font-feature-settings:normal" xml:space="preserve" transform="scale(1)" line-height="1.25" font-size="18.22px" y="20.777645" x="19.067595" font-family="&apos;Bookman Old Style&apos;" fill="#352d5d"><tspan id="tspan4504" font-family="Arial" y="20.777645" x="19.067595" fill="#352d5d">RESET</tspan></text>
<g id="g917" transform="matrix(1.0564 .21152 -.22454 .99511 5.5959 -7.0724)" fill="#2a4b34"><g id="g836" transform="matrix(.92389 -.16291 .16291 .92390 -24.479 29.447)" stroke-width="1.0169"><path id="path830" style="color-rendering:auto;text-decoration-color:#000000;color:#000000;font-variant-numeric:normal;shape-rendering:auto;font-variant-ligatures:normal;text-decoration-line:none;font-variant-position:normal;mix-blend-mode:normal;solid-color:#000000;font-feature-settings:normal;shape-padding:0;font-variant-alternates:normal;text-indent:0;dominant-baseline:auto;font-variant-caps:normal;image-rendering:auto;white-space:normal;text-decoration-style:solid;text-orientation:mixed;isolation:auto;enable-background:accumulate;text-transform:none" d="m41.216-18.269c-1.1856-0.01227-3.4083 8.1373-3.2173 9.3075 1.5006 9.197-0.35744 11.979 10.183 25.468 1.2827 1.6414 3.83-0.14358 2.8785-1.9967-6.7197-7.664-9.4195-15.177-9.7979-23.493-0.2611-0.52678 0.54159-9.2795-0.04632-9.2853zm24.444 58.366-5.805-28.832c-0.294-1.4755-1.379-2.6676-2.82-3.1063-1.44-0.4388-2.999-0.0491-4.061 1.0131l-4.4967 5.2505 1.9872 2.5138 4.7696-4.2515s1.2859 1.3321 1.5298 2.543l5.2144 21.887c0.22226 1.0969-0.11834 2.2283-0.90346 3.0135-0.788 0.788-1.7391 0.9482-2.8331 0.72305l-22.474-4.627c-1.208-0.247-2.451-1.622-2.451-1.622l2.39-2.39 5.7729-5.7729c-12.13-9.971-12.867-26.161-1.085-38.948l0.82143-5.7606c-0.53688 0.45029-3.0428 2.3486-6.7489 7.7125-7.6656 11.094-8.3282 27.432 1.2375 36.998l-5.757 5.757c-1.0622 1.0622-1.4519 2.6238-1.0131 4.0641 0.43874 1.4403 1.6323 2.5213 3.1087 2.8172l28.833 5.8047c1.3335 0.27133 2.7133-0.14432 3.6745-1.1055 0.96119-0.96119 1.3783-2.3424 1.1098-3.6817z" fill="#2a4b34"/></g><path id="path902" style="paint-order:stroke markers fill" d="m8.8927 50.543c-0.8605 0.351-0.9832 1.495-1.387 2.23-1.4609 3.672-2.2548 7.636-1.945 11.595 0.23336 7.1113 4.375 13.763 10.193 17.72 0.51626 0.44089 1.3835 0.75204 1.7157 1.2399-1.8536 2.8242-3.9845 5.4756-5.6765 8.4003-0.34801 0.90698 0.9043 1.1318 1.4625 1.5016 1.8529 0.49115 3.8195 0.28217 5.7188 0.4278 5.9083 0.1355 11.818 0.46681 17.728 0.36377 2.1108-0.07487 3.308-2.7662 2.4046-4.5528-2.4544-6.0939-5.1268-12.1-7.7753-18.111-0.6123-1.2705-1.1793-2.8125-2.5249-3.4684-0.85718 0.11445-1.2232 1.1405-1.8153 1.6795-0.88727 1.0335-1.6505 2.2339-2.6841 3.1115-1.0747 0.46135-1.7459-0.65866-2.4607-1.2202-3.656-3.526-7.559-7.147-9.455-11.962-1.184-2.838-1.772-5.896-2.9673-8.721-0.118-0.17-0.3281-0.263-0.533-0.234z" transform="translate(0,-36)" stroke="#2a4b34" stroke-width=".23850"/></g><g id="g931" transform="matrix(-1.0564 -.21152 .22454 -.99511 94.351 34.372)" stroke-width="0" fill="#8d2a35"><g id="g927" transform="matrix(.92389 -.16291 .16291 .92390 -24.479 29.447)"><path id="path925" style="color-rendering:auto;text-decoration-color:#000000;color:#000000;font-variant-numeric:normal;shape-rendering:auto;font-variant-ligatures:normal;text-decoration-line:none;font-variant-position:normal;mix-blend-mode:normal;solid-color:#000000;font-feature-settings:normal;shape-padding:0;font-variant-alternates:normal;text-indent:0;dominant-baseline:auto;font-variant-caps:normal;image-rendering:auto;white-space:normal;text-decoration-style:solid;text-orientation:mixed;isolation:auto;enable-background:accumulate;text-transform:none" d="m41.216-18.269c-1.1856-0.01227-3.4083 8.1373-3.2173 9.3075 1.5006 9.197-0.35744 11.979 10.183 25.468 1.2827 1.6414 3.83-0.14358 2.8785-1.9967-6.7197-7.664-9.4195-15.177-9.7979-23.493-0.2611-0.52678 0.54159-9.2795-0.04632-9.2853zm24.444 58.366-5.805-28.832c-0.294-1.4755-1.379-2.6676-2.82-3.1063-1.44-0.4388-2.999-0.0491-4.061 1.0131l-4.4967 5.2505 1.9872 2.5138 4.7696-4.2515s1.2859 1.3321 1.5298 2.543l5.2144 21.887c0.22226 1.0969-0.11834 2.2283-0.90346 3.0135-0.788 0.788-1.7391 0.9482-2.8331 0.72305l-22.474-4.627c-1.208-0.247-2.451-1.622-2.451-1.622l2.39-2.39 5.7729-5.7729c-12.13-9.971-12.867-26.161-1.085-38.948l0.82143-5.7606c-0.53688 0.45029-3.0428 2.3486-6.7489 7.7125-7.6656 11.094-8.3282 27.432 1.2375 36.998l-5.757 5.757c-1.0622 1.0622-1.4519 2.6238-1.0131 4.0641 0.43874 1.4403 1.6323 2.5213 3.1087 2.8172l28.833 5.8047c1.3335 0.27133 2.7133-0.14432 3.6745-1.1055 0.96119-0.96119 1.3783-2.3424 1.1098-3.6817z" stroke-width="0" fill="#8d2a35"/></g><path id="path929" style="paint-order:stroke markers fill" d="m8.8927 50.543c-0.8605 0.351-0.9832 1.495-1.387 2.23-1.4609 3.672-2.2548 7.636-1.945 11.595 0.23336 7.1113 4.375 13.763 10.193 17.72 0.51626 0.44089 1.3835 0.75204 1.7157 1.2399-1.8536 2.8242-3.9845 5.4756-5.6765 8.4003-0.34801 0.90698 0.9043 1.1318 1.4625 1.5016 1.8529 0.49115 3.8195 0.28217 5.7188 0.4278 5.9083 0.1355 11.818 0.46681 17.728 0.36377 2.1108-0.07487 3.308-2.7662 2.4046-4.5528-2.4544-6.0939-5.1268-12.1-7.7753-18.111-0.6123-1.2705-1.1793-2.8125-2.5249-3.4684-0.85718 0.11445-1.2232 1.1405-1.8153 1.6795-0.88727 1.0335-1.6505 2.2339-2.6841 3.1115-1.0747 0.46135-1.7459-0.65866-2.4607-1.2202-3.656-3.526-7.559-7.147-9.455-11.962-1.184-2.838-1.772-5.896-2.9673-8.721-0.118-0.17-0.3281-0.263-0.533-0.234z" transform="translate(0,-36)"/></g></g></g></svg>
