<?xml version="1.1" standalone="no"?>
<!DOCTYPE svg PUBLIC "-//W3C//DTD SVG 1.0//EN"
 "http://www.w3.org/TR/2001/REC-SVG-20010904/DTD/svg10.dtd">
<svg version="1.0" xmlns="http://www.w3.org/2000/svg"
 width="300.000000pt" height="285.000000pt" viewBox="0 0 300.000000 285.000000"
 preserveAspectRatio="xMidYMid meet">
<metadata>
</metadata>  <g
     style="fill:#a6b245;fill-opacity:1;stroke:none"
     id="g831"
     transform="matrix(0.1,0,0,-0.1,0,285)">
    <path
       style="fill:#a6b245;fill-opacity:1"
       id="path829"
       d="m 1496,2840 c -2,-8 -82,-255 -177,-547 L 1146,1760 H 571 -5 l 56,-38 C 81,1702 292,1550 519,1386 835,1156 929,1083 924,1071 921,1062 873,918 818,750 764,582 686,345 645,223 605,100 575,2 578,4 c 4,2 212,153 462,335 250,182 460,329 466,327 9,-3 801,-575 893,-645 31,-23 34,-24 27,-6 -4,11 -46,137 -93,280 -46,143 -124,380 -172,527 l -88,266 301,219 c 165,120 374,271 464,336 l 164,117 h -574 -573 l -124,383 c -69,210 -148,456 -177,547 -29,91 -55,158 -58,150 z m 24,-156 c 0,-7 22,-80 49,-161 27,-81 93,-282 146,-446 59,-180 106,-308 119,-323 l 21,-23 500,-4 c 333,-2 500,-7 500,-14 0,-10 -71,-65 -270,-208 -60,-44 -114,-83 -120,-87 -5,-4 -55,-40 -110,-80 -286,-205 -305,-221 -305,-264 0,-24 31,-127 105,-349 40,-123 142,-437 190,-593 9,-27 -27,-9 -127,65 -58,43 -158,116 -223,163 -65,47 -164,119 -220,160 -221,162 -249,180 -270,180 -12,0 -37,-10 -56,-23 C 1358,615 1193,496 1015,365 746,166 650,101 650,116 c 0,4 11,39 24,78 14,39 75,226 136,416 61,190 120,371 131,403 11,31 18,65 14,76 -9,29 -49,63 -235,196 -241,174 -380,274 -405,293 -5,4 -47,34 -92,67 -81,57 -96,74 -70,76 6,1 231,2 499,3 l 487,2 25,23 c 18,17 39,68 72,170 26,80 77,238 114,351 38,113 78,237 90,275 35,116 51,152 66,152 8,0 14,-6 14,-13 z" />
  </g>
  <path
     transform="scale(0.75)"
     id="path839"
     d="m 86.864671,364.29212 c 0,-0.23859 2.955895,-9.39654 6.568652,-20.35098 3.612763,-10.95446 11.099087,-33.94533 16.636287,-51.09084 5.5372,-17.14551 11.57868,-35.78144 13.42553,-41.41317 4.01145,-12.23244 4.64189,-15.20523 3.70174,-17.45531 -1.57175,-3.76172 -7.81114,-8.70931 -42.835203,-33.96655 -57.491614,-41.4595 -65.30539,-47.27219 -65.30539,-48.58082 0,-0.82884 10.063108,-0.99646 72.534373,-1.20822 l 60.47449,-0.20498 2.02291,-1.96871 c 4.83581,-4.70624 3.34881,-0.53135 36.5238,-102.543558 6.77215,-20.82417 8.11387,-24.192894 9.8047,-24.617268 1.54728,-0.388343 1.81823,-0.07794 2.46855,2.828015 1.08626,4.853908 27.40364,85.413281 33.58147,102.795241 4.90097,13.78939 6.81532,18.2421 8.97707,20.88022 l 1.72228,2.10182 13.25655,0.008 c 7.29111,0.005 32.87901,0.20794 56.86199,0.45205 42.58754,0.43347 62.00594,0.98104 62.79566,1.77077 0.40762,0.40762 -4.51458,4.70228 -10.83223,9.45124 -4.15361,3.12226 -46.08874,33.58371 -63.48503,46.11517 -26.54874,19.12447 -31.16284,23.03905 -32.34922,27.4449 -0.88576,3.28947 0.70329,8.77861 17.26806,59.64998 7.0921,21.78025 18.63994,57.82084 21.2682,66.37761 0.44112,1.43618 0.66961,2.74369 0.50773,2.90556 -0.89667,0.89667 -6.80821,-2.92618 -23.89725,-15.45379 -30.85026,-22.61567 -73.61534,-53.59888 -78.73137,-57.0407 -3.07919,-2.07154 -6.40703,-4.00867 -7.39521,-4.30473 -2.11369,-0.63328 -4.47003,-0.0959 -7.65672,1.74603 -4.55549,2.63315 -25.53399,17.64381 -61.26571,43.8372 -35.249563,25.83994 -46.646709,33.61829 -46.646709,31.83559 z"
     style="opacity:1;fill:#c3d14e;fill-opacity:1;stroke:#617a8f;stroke-width:0.37795275;stroke-linecap:round;stroke-linejoin:round;stroke-miterlimit:4;stroke-dasharray:none;stroke-dashoffset:0;stroke-opacity:1;paint-order:normal" />
</svg>
